<mxfile host="app.diagrams.net" modified="2022-11-08T13:26:38.446Z" agent="5.0 (Windows NT 10.0; Win64; x64) AppleWebKit/537.36 (KHTML, like Gecko) Chrome/107.0.0.0 Safari/537.36" etag="ZodKB0y7Bqii3hjJG_gs" version="20.5.1" type="github">
  <diagram id="C5RBs43oDa-KdzZeNtuy" name="Page-1">
    <mxGraphModel dx="868" dy="450" grid="1" gridSize="10" guides="1" tooltips="1" connect="1" arrows="1" fold="1" page="1" pageScale="1" pageWidth="827" pageHeight="1169" math="0" shadow="0">
      <root>
        <mxCell id="WIyWlLk6GJQsqaUBKTNV-0" />
        <mxCell id="WIyWlLk6GJQsqaUBKTNV-1" parent="WIyWlLk6GJQsqaUBKTNV-0" />
        <mxCell id="MiZStCccM1iOqbARWDpQ-40" style="edgeStyle=orthogonalEdgeStyle;rounded=0;orthogonalLoop=1;jettySize=auto;html=1;entryX=0.5;entryY=0;entryDx=0;entryDy=0;" edge="1" parent="WIyWlLk6GJQsqaUBKTNV-1" source="WIyWlLk6GJQsqaUBKTNV-3" target="MiZStCccM1iOqbARWDpQ-7">
          <mxGeometry relative="1" as="geometry" />
        </mxCell>
        <mxCell id="WIyWlLk6GJQsqaUBKTNV-3" value="租赁摊位" style="rounded=1;whiteSpace=wrap;html=1;fontSize=12;glass=0;strokeWidth=1;shadow=0;fillColor=#f5f5f5;fontColor=#333333;strokeColor=#666666;" parent="WIyWlLk6GJQsqaUBKTNV-1" vertex="1">
          <mxGeometry x="40" y="30" width="120" height="40" as="geometry" />
        </mxCell>
        <mxCell id="WIyWlLk6GJQsqaUBKTNV-12" value="写入cookie" style="rounded=1;whiteSpace=wrap;html=1;fontSize=12;glass=0;strokeWidth=1;shadow=0;fillColor=#0050ef;strokeColor=#001DBC;fontColor=#ffffff;" parent="WIyWlLk6GJQsqaUBKTNV-1" vertex="1">
          <mxGeometry x="220" y="160" width="120" height="40" as="geometry" />
        </mxCell>
        <mxCell id="MiZStCccM1iOqbARWDpQ-10" value="No" style="edgeStyle=orthogonalEdgeStyle;rounded=0;orthogonalLoop=1;jettySize=auto;html=1;" edge="1" parent="WIyWlLk6GJQsqaUBKTNV-1">
          <mxGeometry relative="1" as="geometry">
            <mxPoint x="150" y="179" as="sourcePoint" />
            <mxPoint x="220" y="179" as="targetPoint" />
            <Array as="points">
              <mxPoint x="180" y="179" />
              <mxPoint x="180" y="179" />
            </Array>
          </mxGeometry>
        </mxCell>
        <mxCell id="MiZStCccM1iOqbARWDpQ-12" value="Yes" style="edgeStyle=orthogonalEdgeStyle;rounded=0;orthogonalLoop=1;jettySize=auto;html=1;strokeColor=#FF0000;" edge="1" parent="WIyWlLk6GJQsqaUBKTNV-1" target="MiZStCccM1iOqbARWDpQ-11">
          <mxGeometry relative="1" as="geometry">
            <mxPoint x="100" y="219" as="sourcePoint" />
          </mxGeometry>
        </mxCell>
        <mxCell id="MiZStCccM1iOqbARWDpQ-7" value="用户是否登录" style="rhombus;whiteSpace=wrap;html=1;rounded=1;glass=0;strokeWidth=1;shadow=0;fillColor=#dae8fc;strokeColor=#6c8ebf;" vertex="1" parent="WIyWlLk6GJQsqaUBKTNV-1">
          <mxGeometry x="50" y="140" width="100" height="80" as="geometry" />
        </mxCell>
        <mxCell id="MiZStCccM1iOqbARWDpQ-43" style="edgeStyle=orthogonalEdgeStyle;rounded=0;orthogonalLoop=1;jettySize=auto;html=1;exitX=1;exitY=0.5;exitDx=0;exitDy=0;entryX=0.5;entryY=1;entryDx=0;entryDy=0;fillColor=#ffcc99;strokeColor=#FF0000;" edge="1" parent="WIyWlLk6GJQsqaUBKTNV-1" source="MiZStCccM1iOqbARWDpQ-11" target="WIyWlLk6GJQsqaUBKTNV-12">
          <mxGeometry relative="1" as="geometry" />
        </mxCell>
        <mxCell id="MiZStCccM1iOqbARWDpQ-49" value="之后写入cookie" style="edgeLabel;html=1;align=center;verticalAlign=middle;resizable=0;points=[];" vertex="1" connectable="0" parent="MiZStCccM1iOqbARWDpQ-43">
          <mxGeometry x="-0.0333" y="3" relative="1" as="geometry">
            <mxPoint as="offset" />
          </mxGeometry>
        </mxCell>
        <mxCell id="MiZStCccM1iOqbARWDpQ-11" value="购物车信息写入&amp;nbsp;redis" style="whiteSpace=wrap;html=1;rounded=1;glass=0;strokeWidth=1;shadow=0;fillColor=#ffcc99;strokeColor=#36393d;" vertex="1" parent="WIyWlLk6GJQsqaUBKTNV-1">
          <mxGeometry x="40" y="290" width="120" height="60" as="geometry" />
        </mxCell>
        <mxCell id="MiZStCccM1iOqbARWDpQ-44" style="edgeStyle=orthogonalEdgeStyle;rounded=0;orthogonalLoop=1;jettySize=auto;html=1;exitX=0.5;exitY=1;exitDx=0;exitDy=0;entryX=0.5;entryY=0;entryDx=0;entryDy=0;strokeColor=#000000;" edge="1" parent="WIyWlLk6GJQsqaUBKTNV-1" source="MiZStCccM1iOqbARWDpQ-32" target="MiZStCccM1iOqbARWDpQ-37">
          <mxGeometry relative="1" as="geometry" />
        </mxCell>
        <mxCell id="MiZStCccM1iOqbARWDpQ-32" value="查看购物车" style="rounded=1;whiteSpace=wrap;html=1;fontSize=12;glass=0;strokeWidth=1;shadow=0;fillColor=#f5f5f5;fontColor=#333333;strokeColor=#666666;" vertex="1" parent="WIyWlLk6GJQsqaUBKTNV-1">
          <mxGeometry x="30" y="410" width="120" height="40" as="geometry" />
        </mxCell>
        <mxCell id="MiZStCccM1iOqbARWDpQ-80" style="edgeStyle=orthogonalEdgeStyle;rounded=0;orthogonalLoop=1;jettySize=auto;html=1;exitX=0.5;exitY=1;exitDx=0;exitDy=0;entryX=0;entryY=0.5;entryDx=0;entryDy=0;strokeColor=#FF0000;" edge="1" parent="WIyWlLk6GJQsqaUBKTNV-1" source="MiZStCccM1iOqbARWDpQ-34" target="MiZStCccM1iOqbARWDpQ-61">
          <mxGeometry relative="1" as="geometry" />
        </mxCell>
        <mxCell id="MiZStCccM1iOqbARWDpQ-34" value="cookie获取数据" style="rounded=1;whiteSpace=wrap;html=1;fontSize=12;glass=0;strokeWidth=1;shadow=0;fillColor=#0050ef;strokeColor=#001DBC;fontColor=#ffffff;" vertex="1" parent="WIyWlLk6GJQsqaUBKTNV-1">
          <mxGeometry x="240" y="410" width="120" height="40" as="geometry" />
        </mxCell>
        <mxCell id="MiZStCccM1iOqbARWDpQ-47" value="No" style="edgeStyle=orthogonalEdgeStyle;rounded=0;orthogonalLoop=1;jettySize=auto;html=1;strokeColor=#000000;entryX=0;entryY=0.5;entryDx=0;entryDy=0;" edge="1" parent="WIyWlLk6GJQsqaUBKTNV-1" source="MiZStCccM1iOqbARWDpQ-37" target="MiZStCccM1iOqbARWDpQ-34">
          <mxGeometry relative="1" as="geometry">
            <mxPoint x="620" y="200" as="targetPoint" />
          </mxGeometry>
        </mxCell>
        <mxCell id="MiZStCccM1iOqbARWDpQ-76" value="Yes" style="edgeStyle=orthogonalEdgeStyle;rounded=0;orthogonalLoop=1;jettySize=auto;html=1;strokeColor=#FF0000;" edge="1" parent="WIyWlLk6GJQsqaUBKTNV-1" source="MiZStCccM1iOqbARWDpQ-37" target="MiZStCccM1iOqbARWDpQ-39">
          <mxGeometry relative="1" as="geometry" />
        </mxCell>
        <mxCell id="MiZStCccM1iOqbARWDpQ-37" value="用户是否登录" style="rhombus;whiteSpace=wrap;html=1;rounded=1;glass=0;strokeWidth=1;shadow=0;fillColor=#dae8fc;strokeColor=#6c8ebf;" vertex="1" parent="WIyWlLk6GJQsqaUBKTNV-1">
          <mxGeometry x="40" y="520" width="100" height="80" as="geometry" />
        </mxCell>
        <mxCell id="MiZStCccM1iOqbARWDpQ-81" value="登入后,第一次" style="edgeStyle=orthogonalEdgeStyle;rounded=0;orthogonalLoop=1;jettySize=auto;html=1;exitX=0.5;exitY=0;exitDx=0;exitDy=0;strokeColor=#FF0000;" edge="1" parent="WIyWlLk6GJQsqaUBKTNV-1" source="MiZStCccM1iOqbARWDpQ-39" target="MiZStCccM1iOqbARWDpQ-61">
          <mxGeometry relative="1" as="geometry" />
        </mxCell>
        <mxCell id="MiZStCccM1iOqbARWDpQ-39" value="redis获取购物车信息" style="whiteSpace=wrap;html=1;rounded=1;glass=0;strokeWidth=1;shadow=0;fillColor=#ffcc99;strokeColor=#36393d;" vertex="1" parent="WIyWlLk6GJQsqaUBKTNV-1">
          <mxGeometry x="240" y="530" width="120" height="60" as="geometry" />
        </mxCell>
        <mxCell id="MiZStCccM1iOqbARWDpQ-82" style="edgeStyle=orthogonalEdgeStyle;rounded=0;orthogonalLoop=1;jettySize=auto;html=1;strokeColor=#FF0000;" edge="1" parent="WIyWlLk6GJQsqaUBKTNV-1" source="MiZStCccM1iOqbARWDpQ-61" target="MiZStCccM1iOqbARWDpQ-72">
          <mxGeometry relative="1" as="geometry" />
        </mxCell>
        <mxCell id="MiZStCccM1iOqbARWDpQ-61" value="数据合并" style="whiteSpace=wrap;html=1;fillColor=#ffcc99;strokeColor=#36393d;rounded=1;glass=0;strokeWidth=1;shadow=0;" vertex="1" parent="WIyWlLk6GJQsqaUBKTNV-1">
          <mxGeometry x="430" y="470" width="120" height="60" as="geometry" />
        </mxCell>
        <mxCell id="MiZStCccM1iOqbARWDpQ-64" value="redis获取购物车信息" style="whiteSpace=wrap;html=1;rounded=1;glass=0;strokeWidth=1;shadow=0;fillColor=#ffcc99;strokeColor=#36393d;" vertex="1" parent="WIyWlLk6GJQsqaUBKTNV-1">
          <mxGeometry x="1520" y="750" width="120" height="60" as="geometry" />
        </mxCell>
        <mxCell id="MiZStCccM1iOqbARWDpQ-72" value="执行 &quot;租赁摊位&quot;&amp;nbsp;流程" style="whiteSpace=wrap;html=1;fillColor=#ffcc99;strokeColor=#36393d;rounded=1;glass=0;strokeWidth=1;shadow=0;" vertex="1" parent="WIyWlLk6GJQsqaUBKTNV-1">
          <mxGeometry x="610" y="470" width="120" height="60" as="geometry" />
        </mxCell>
        <mxCell id="MiZStCccM1iOqbARWDpQ-85" value="" style="edgeStyle=orthogonalEdgeStyle;rounded=0;orthogonalLoop=1;jettySize=auto;html=1;strokeColor=#FF0000;" edge="1" parent="WIyWlLk6GJQsqaUBKTNV-1" source="MiZStCccM1iOqbARWDpQ-83" target="MiZStCccM1iOqbARWDpQ-84">
          <mxGeometry relative="1" as="geometry" />
        </mxCell>
        <mxCell id="MiZStCccM1iOqbARWDpQ-83" value="生成订单" style="rounded=1;whiteSpace=wrap;html=1;fontSize=12;glass=0;strokeWidth=1;shadow=0;fillColor=#f5f5f5;fontColor=#333333;strokeColor=#666666;" vertex="1" parent="WIyWlLk6GJQsqaUBKTNV-1">
          <mxGeometry x="30" y="670" width="120" height="40" as="geometry" />
        </mxCell>
        <mxCell id="MiZStCccM1iOqbARWDpQ-91" value="" style="edgeStyle=orthogonalEdgeStyle;rounded=0;orthogonalLoop=1;jettySize=auto;html=1;strokeColor=#FF0000;" edge="1" parent="WIyWlLk6GJQsqaUBKTNV-1" source="MiZStCccM1iOqbARWDpQ-84" target="MiZStCccM1iOqbARWDpQ-90">
          <mxGeometry relative="1" as="geometry" />
        </mxCell>
        <mxCell id="MiZStCccM1iOqbARWDpQ-93" value="" style="edgeStyle=orthogonalEdgeStyle;rounded=0;orthogonalLoop=1;jettySize=auto;html=1;strokeColor=#FF0000;" edge="1" parent="WIyWlLk6GJQsqaUBKTNV-1" source="MiZStCccM1iOqbARWDpQ-84" target="MiZStCccM1iOqbARWDpQ-92">
          <mxGeometry relative="1" as="geometry" />
        </mxCell>
        <mxCell id="MiZStCccM1iOqbARWDpQ-84" value="redis获取购物车信息" style="whiteSpace=wrap;html=1;fillColor=#fad7ac;strokeColor=#b46504;rounded=1;glass=0;strokeWidth=1;shadow=0;" vertex="1" parent="WIyWlLk6GJQsqaUBKTNV-1">
          <mxGeometry x="210" y="660" width="120" height="60" as="geometry" />
        </mxCell>
        <mxCell id="MiZStCccM1iOqbARWDpQ-95" value="" style="edgeStyle=orthogonalEdgeStyle;rounded=0;orthogonalLoop=1;jettySize=auto;html=1;strokeColor=#FF0000;" edge="1" parent="WIyWlLk6GJQsqaUBKTNV-1" source="MiZStCccM1iOqbARWDpQ-90" target="MiZStCccM1iOqbARWDpQ-94">
          <mxGeometry relative="1" as="geometry" />
        </mxCell>
        <mxCell id="MiZStCccM1iOqbARWDpQ-90" value="作为订单信息,写入数据库" style="whiteSpace=wrap;html=1;fillColor=#b0e3e6;strokeColor=#0e8088;rounded=1;glass=0;strokeWidth=1;shadow=0;" vertex="1" parent="WIyWlLk6GJQsqaUBKTNV-1">
          <mxGeometry x="210" y="800" width="120" height="60" as="geometry" />
        </mxCell>
        <mxCell id="MiZStCccM1iOqbARWDpQ-92" value="redis删除该购物车信息" style="whiteSpace=wrap;html=1;fillColor=#fad7ac;strokeColor=#b46504;rounded=1;glass=0;strokeWidth=1;shadow=0;" vertex="1" parent="WIyWlLk6GJQsqaUBKTNV-1">
          <mxGeometry x="410" y="660" width="140" height="60" as="geometry" />
        </mxCell>
        <mxCell id="MiZStCccM1iOqbARWDpQ-94" value="向redis中写入订单信息,设置生命周期" style="whiteSpace=wrap;html=1;fillColor=#fad7ac;strokeColor=#b46504;rounded=1;glass=0;strokeWidth=1;shadow=0;" vertex="1" parent="WIyWlLk6GJQsqaUBKTNV-1">
          <mxGeometry x="420" y="800" width="120" height="60" as="geometry" />
        </mxCell>
        <mxCell id="MiZStCccM1iOqbARWDpQ-96" value="订单是具有时效性的" style="text;html=1;strokeColor=none;fillColor=none;align=center;verticalAlign=middle;whiteSpace=wrap;rounded=0;" vertex="1" parent="WIyWlLk6GJQsqaUBKTNV-1">
          <mxGeometry x="414" y="765" width="120" height="30" as="geometry" />
        </mxCell>
        <mxCell id="MiZStCccM1iOqbARWDpQ-107" value="" style="edgeStyle=orthogonalEdgeStyle;rounded=0;orthogonalLoop=1;jettySize=auto;html=1;strokeColor=#FF0000;fontColor=#000000;" edge="1" parent="WIyWlLk6GJQsqaUBKTNV-1" source="MiZStCccM1iOqbARWDpQ-97" target="MiZStCccM1iOqbARWDpQ-106">
          <mxGeometry relative="1" as="geometry" />
        </mxCell>
        <mxCell id="MiZStCccM1iOqbARWDpQ-97" value="查看订单" style="rounded=1;whiteSpace=wrap;html=1;fontSize=12;glass=0;strokeWidth=1;shadow=0;fillColor=#f5f5f5;fontColor=#333333;strokeColor=#666666;" vertex="1" parent="WIyWlLk6GJQsqaUBKTNV-1">
          <mxGeometry x="30" y="920" width="120" height="40" as="geometry" />
        </mxCell>
        <mxCell id="MiZStCccM1iOqbARWDpQ-103" value="" style="edgeStyle=orthogonalEdgeStyle;rounded=0;orthogonalLoop=1;jettySize=auto;html=1;strokeColor=#FF0000;" edge="1" parent="WIyWlLk6GJQsqaUBKTNV-1" source="MiZStCccM1iOqbARWDpQ-101" target="MiZStCccM1iOqbARWDpQ-102">
          <mxGeometry relative="1" as="geometry" />
        </mxCell>
        <mxCell id="MiZStCccM1iOqbARWDpQ-101" value="删除订单" style="rounded=1;whiteSpace=wrap;html=1;fontSize=12;glass=0;strokeWidth=1;shadow=0;fillColor=#f5f5f5;fontColor=#333333;strokeColor=#666666;" vertex="1" parent="WIyWlLk6GJQsqaUBKTNV-1">
          <mxGeometry x="30" y="1010" width="120" height="40" as="geometry" />
        </mxCell>
        <mxCell id="MiZStCccM1iOqbARWDpQ-105" value="" style="edgeStyle=orthogonalEdgeStyle;rounded=0;orthogonalLoop=1;jettySize=auto;html=1;strokeColor=#FF0000;" edge="1" parent="WIyWlLk6GJQsqaUBKTNV-1" source="MiZStCccM1iOqbARWDpQ-102" target="MiZStCccM1iOqbARWDpQ-104">
          <mxGeometry relative="1" as="geometry" />
        </mxCell>
        <mxCell id="MiZStCccM1iOqbARWDpQ-102" value="删除redis中&amp;nbsp;订单信息" style="whiteSpace=wrap;html=1;fillColor=#fad7ac;strokeColor=#b46504;rounded=1;glass=0;strokeWidth=1;shadow=0;" vertex="1" parent="WIyWlLk6GJQsqaUBKTNV-1">
          <mxGeometry x="230" y="1000" width="120" height="60" as="geometry" />
        </mxCell>
        <mxCell id="MiZStCccM1iOqbARWDpQ-104" value="删除数据库中&amp;nbsp;订单信息" style="whiteSpace=wrap;html=1;fillColor=#b0e3e6;strokeColor=#000000;rounded=1;glass=0;strokeWidth=1;shadow=0;" vertex="1" parent="WIyWlLk6GJQsqaUBKTNV-1">
          <mxGeometry x="430" y="1000" width="150" height="60" as="geometry" />
        </mxCell>
        <mxCell id="MiZStCccM1iOqbARWDpQ-109" value="No" style="edgeStyle=orthogonalEdgeStyle;rounded=0;orthogonalLoop=1;jettySize=auto;html=1;strokeColor=#000000;fontColor=#000000;" edge="1" parent="WIyWlLk6GJQsqaUBKTNV-1" source="MiZStCccM1iOqbARWDpQ-106" target="MiZStCccM1iOqbARWDpQ-108">
          <mxGeometry relative="1" as="geometry" />
        </mxCell>
        <mxCell id="MiZStCccM1iOqbARWDpQ-106" value="查看redis中订单信息" style="whiteSpace=wrap;html=1;fillColor=#f5f5f5;strokeColor=#666666;fontColor=#333333;rounded=1;glass=0;strokeWidth=1;shadow=0;" vertex="1" parent="WIyWlLk6GJQsqaUBKTNV-1">
          <mxGeometry x="230" y="910" width="120" height="60" as="geometry" />
        </mxCell>
        <mxCell id="MiZStCccM1iOqbARWDpQ-108" value="查看数据库中订单信息" style="whiteSpace=wrap;html=1;fillColor=#f5f5f5;strokeColor=#666666;fontColor=#333333;rounded=1;glass=0;strokeWidth=1;shadow=0;" vertex="1" parent="WIyWlLk6GJQsqaUBKTNV-1">
          <mxGeometry x="430" y="910" width="150" height="60" as="geometry" />
        </mxCell>
      </root>
    </mxGraphModel>
  </diagram>
</mxfile>
